<svg xmlns="http://www.w3.org/2000/svg" xmlns:xlink="http://www.w3.org/1999/xlink" viewBox="0 0 163 50"><defs><style>.a{fill:#f0ab00;}.b{fill:url(#a);}.c{fill:#fff;}.d{fill:#231f20;}</style><linearGradient id="a" x1="92.67" y1="-83.47" x2="92.67" y2="-107.33" gradientTransform="matrix(1.12, 0, 0, -1.12, 22.15, -81.39)" gradientUnits="userSpaceOnUse"><stop offset="0" stop-color="#27b6ea"/><stop offset="0.18" stop-color="#1fa4dd"/><stop offset="0.5" stop-color="#1389c9"/><stop offset="0.78" stop-color="#0c79bd"/><stop offset="1" stop-color="#0973b9"/></linearGradient></defs><title>fraghdr_SAP_alt</title><rect class="a" width="163" height="50"/><polyline class="b" points="99 39 126.4 39 153.2 12.2 99 12.2 99 39"/><path class="c" d="M131.2,17.3h-5.3V29.9l-4.7-12.6h-4.6l-3.9,10.6c-.4-2.7-3.2-3.6-5.3-4.3s-3-1.1-3-1.9.8-1.1,2.4-1.1a9.4,9.4,0,0,1,3.9,1.1l1.9-3.2a14,14,0,0,0-6.1-1.4,7.2,7.2,0,0,0-5.3,2,4.7,4.7,0,0,0-1.3,3.1,4.2,4.2,0,0,0,1.8,3.7,11,11,0,0,0,3.6,1.6c1.5.5,2.7.8,2.7,1.7a1.5,1.5,0,0,1-.3.8c-.3.4-.9.5-1.7.6a7.6,7.6,0,0,1-4.4-1.2l-1.6,3.3a12.6,12.6,0,0,0,6,1.6h.2a7.1,7.1,0,0,0,4.6-1.6l.2-.2-.6,1.4h4.8l.8-2.5a7.8,7.8,0,0,0,2.9.5,10,10,0,0,0,2.8-.4l.8,2.5h7.9V29H132c4.2,0,6.6-2.1,6.6-5.7S136.3,17.3,131.2,17.3ZM118.9,28.1a3.8,3.8,0,0,1-1.7-.3l1.7-5.3,1.6,5.3A3.7,3.7,0,0,1,118.9,28.1Zm12.6-3h-1.1V20.8h1.1c1.6,0,2.8.5,2.8,2.1S133.1,25.1,131.5,25.1Z"/><path class="d" d="M11.9,30.4V20.7h1.6v9.7Z"/><path class="d" d="M15.4,30.4v-7H17v1.2a3.3,3.3,0,0,1,2.5-1.2,1.9,1.9,0,0,1,2.1,2v5.1H20V25.8c0-.7-.4-1.1-1-1.1a2.9,2.9,0,0,0-1.8.9v4.9Z"/><path class="d" d="M22.5,29.6l.9-1a3.1,3.1,0,0,0,2.2.9c.9,0,1.4-.2,1.4-.7s-.7-.7-1.6-1-2.6-.7-2.6-2.2,1-2.1,2.6-2.1a4,4,0,0,1,2.8,1l-.7,1a3.9,3.9,0,0,0-2-.7c-.9,0-1.2.4-1.2.7s.7.7,1.5.9,2.6.7,2.6,2.2-1.4,2.1-3,2.1a3.8,3.8,0,0,1-2.8-1Z"/><path class="d" d="M29.7,22.2V20.8h1.6v1.4Zm0,8.2v-7h1.6v7Z"/><path class="d" d="M32.1,31.5A1.5,1.5,0,0,1,33.2,30a.8.8,0,0,1-.5-.9,1.5,1.5,0,0,1,1-1.2,2.2,2.2,0,0,1-1.1-2c0-1.5,1.1-2.5,3-2.5a3.3,3.3,0,0,1,2.1.7,4.4,4.4,0,0,1,1.7-.7v1.3H38.2a2.3,2.3,0,0,1,.2,1c0,1.5-1.1,2.5-2.8,2.5h-1c-.2.1-.4.2-.4.5s.1.4.7.4h1.2c2.1.1,2.8.7,2.8,1.9s-1.5,2.1-3.6,2.1S32,32.5,32,31.5Zm5.6-.4c0-.5-.4-.7-1.7-.7H34.3a.9.9,0,0,0-.7.9c0,.4.7.9,2.1.9S37.6,31.7,37.6,31.2Zm-.7-5.2a1.2,1.2,0,0,0-1.1-1.4h-.3a1.2,1.2,0,0,0-1.4,1.4c0,.9.5,1.4,1.5,1.4A1.3,1.3,0,0,0,36.9,26Z"/><path class="d" d="M40.3,30.4V20.7h1.6v3.7a3.4,3.4,0,0,1,2.6-1.1,1.8,1.8,0,0,1,2,2.1v5H44.8V25.8c0-.7-.4-1.1-1-1.1a2.9,2.9,0,0,0-1.9.9v4.9Z"/><path class="d" d="M48.5,28.7V24.8H47.2V23.6h1.2V21.1h1.6v2.5h1.9v1.2H50.1v3.3c0,.7.2,1,1,1h.7v1.2H50.6c-1.7.1-2.1-.5-2.1-1.7Z"/><path class="d" d="M52.2,29.6l.9-1a3.1,3.1,0,0,0,2.2.9c.9,0,1.4-.2,1.4-.7s-.7-.7-1.6-1-2.6-.7-2.6-2.2,1-2.1,2.6-2.1a4,4,0,0,1,2.8,1l-.7,1a3.9,3.9,0,0,0-2-.7c-.9,0-1.2.4-1.2.7s.7.7,1.5.9,2.6.7,2.6,2.2-1.4,2.1-3,2.1a4.1,4.1,0,0,1-2.8-1Z"/><path class="d" d="M62.9,30.4V24.7H61.7V23.4h1.2v-.7c0-1.1.5-2.1,2.2-2.1h1V22h-.5c-.7,0-1,.1-1,.9v.7h1.5v1.2H64.6v5.7Z"/><path class="d" d="M66.9,30.4v-7h1.6v1.2h0a2.6,2.6,0,0,1,2.5-1.2h.1v1.5h-.4A2.2,2.2,0,0,0,68.6,26v4.5Z"/><path class="d" d="M71.4,27A3.3,3.3,0,1,1,78,27a3.3,3.3,0,1,1-6.7,0Zm5.2,0c0-1.2-.5-2.2-1.7-2.2s-1.7.9-1.7,2.2.5,2.2,1.7,2.2S76.6,28.4,76.6,27Z"/><path class="d" d="M79.4,30.4v-7h1.6v1a3,3,0,0,1,2.4-1.1,1.7,1.7,0,0,1,1.9,1.1,3.1,3.1,0,0,1,2.5-1.1c1.4,0,2,.9,2,2.1v5H88.1V25.8c0-.7-.2-1.1-1-1.1a2.6,2.6,0,0,0-1.7.9v4.9H83.7V25.8c0-.7-.2-1.1-1-1.1a2.6,2.6,0,0,0-1.7.9v4.9Z"/></svg>