
<svg width="282px" height="50px" viewBox="0 0 282 50" version="1.1" xmlns="http://www.w3.org/2000/svg" xmlns:xlink="http://www.w3.org/1999/xlink">
	<g id="Page-1" stroke="none" stroke-width="1" fill="none" fill-rule="evenodd">
		<g id="turner-logo" fill="#000000" fill-rule="nonzero">
			<path d="M235.4,30.1 C236.2,26.7 236.7,23.9 236.7,21 C236.7,9.5 229,0.3 215.8,0.3 C201.5,0.3 190.1,11 187.9,24.9 C185.6,39.7 194.6,49.5 208.6,49.5 C219.7,49.5 229,43.3 233.7,33.8 L216.8,33.8 C214.7,36 211.9,36.6 209.4,36.5 C204.5,36.4 202.2,33.5 202.2,29.9 L235.4,29.9 L235.4,30.1 Z M214.9,12.8 C219.2,12.8 222.1,15.5 222,19.6 L204.6,19.6 C206.3,15.6 210.2,12.8 214.9,12.8 Z" id="Shape"></path>
			<path d="M271.3,0.6 C265.5,0.6 260.6,5.4 260.6,11.2 C260.6,17.1 265.4,21.9 271.3,21.9 C277.2,21.9 282,17.1 282,11.2 C282.1,5.4 277.2,0.6 271.3,0.6 Z" id="Shape"></path>
			<path d="M171,0.4 C165.6,0.4 159.1,3.6 156,7.9 L157.8,1.6 L142.6,1.6 L134.3,48.5 L150.6,48.5 L155.3,21.9 C156.1,17.5 159.5,14.5 163.6,14.5 C167.6,14.5 169.4,17.7 168.7,21.9 L164,48.5 L180.3,48.5 L185.4,19.7 C187.5,7.9 181.7,0.4 171,0.4 Z" id="Shape"></path>
			<polygon id="Shape" points="2.7 1.6 45.6 1.6 42.9 16.7 29.9 16.7 24.3 48.5 8 48.5 13.6 16.7 0 16.7"></polygon>
			<path d="M49.3,1.6 L65.6,1.6 L61,27.6 C60.2,32.1 62.3,34.8 66.2,34.8 C70.3,34.8 73.4,32 74.2,27.6 L78.8,1.5 L95.1,1.5 L90.7,26.5 C88,42.2 77.8,49.5 64.1,49.5 C50.2,49.5 42.1,41.9 44.9,26.4 L49.3,1.6 Z" id="Shape"></path>
			<polygon id="Shape" points="91.2 48.5 107.5 48.5 115.8 1.6 99.5 1.6"></polygon>
			<path d="M126.6,0.6 C120.8,0.6 115.9,5.4 115.9,11.2 C115.9,17.1 120.7,21.9 126.6,21.9 C132.5,21.9 137.3,17.1 137.3,11.2 C137.3,5.4 132.5,0.6 126.6,0.6 Z" id="Shape"></path>
			<polygon id="Shape" points="235.9 48.5 252.2 48.5 260.4 1.6 244.1 1.6"></polygon>
		</g>
	</g>
</svg>